STARTFONT 2.3
FONT -FontForge-Fredoka One-Book-R-Normal--11-110-72-72-P-64-ISO10646-1
SIZE 11 72 72  4
FONTBOUNDINGBOX 15 14 -2 -3
COMMENT "Generated by fontforge, http://fontforge.sourceforge.net"
COMMENT "Copyright (c) 2011 Milena B Brandao (milenabbrandao@gmail.com), with Reserved Font Name "Fredoka""
STARTPROPERTIES 40
FOUNDRY "FontForge"
FAMILY_NAME "Fredoka One"
WEIGHT_NAME "Book"
SLANT "R"
SETWIDTH_NAME "Normal"
ADD_STYLE_NAME ""
PIXEL_SIZE 11
POINT_SIZE 110
RESOLUTION_X 72
RESOLUTION_Y 72
SPACING "P"
AVERAGE_WIDTH 64
CHARSET_REGISTRY "ISO10646"
CHARSET_ENCODING "1"
FONTNAME_REGISTRY ""
CHARSET_COLLECTIONS "ISO10646-1"
BITS_PER_PIXEL 4
FONT_NAME "FredokaOne-Regular"
FACE_NAME "Fredoka One"
COPYRIGHT "Copyright (c) 2011 Milena B Brandao (milenabbrandao@gmail.com), with Reserved Font Name "Fredoka""
FONT_VERSION "1.001"
FONT_ASCENT 9
FONT_DESCENT 2
UNDERLINE_POSITION -1
UNDERLINE_THICKNESS 1
X_HEIGHT 5
CAP_HEIGHT 8
RAW_ASCENT 800
RAW_DESCENT 200
NORM_SPACE 3
RELATIVE_WEIGHT 40
RELATIVE_SETWIDTH 50
SUPERSCRIPT_X 0
SUPERSCRIPT_Y 5
SUPERSCRIPT_SIZE 7
SUBSCRIPT_X 0
SUBSCRIPT_Y 1
SUBSCRIPT_SIZE 7
AVG_LOWERCASE_WIDTH 64
AVG_UPPERCASE_WIDTH 76
ENDPROPERTIES
CHARS 235
STARTCHAR space
ENCODING 32
SWIDTH 253 0
DWIDTH 3 0
BBX 1 1 0 0
BITMAP
00
ENDCHAR
STARTCHAR exclam
ENCODING 33
SWIDTH 267 0
DWIDTH 3 0
BBX 3 9 0 0
BITMAP
0100
7F60
8F70
8F70
8F70
7F60
0100
6F50
6F60
ENDCHAR
STARTCHAR quotedbl
ENCODING 34
SWIDTH 429 0
DWIDTH 5 0
BBX 5 4 0 4
BITMAP
9E3F50
AF4F60
8C1F40
360900
ENDCHAR
STARTCHAR numbersign
ENCODING 35
SWIDTH 749 0
DWIDTH 8 0
BBX 8 8 0 0
BITMAP
008E05F2
00BC08F1
4EFFEFFE
28FB7EC6
27F85FA2
CFFFFFF8
1AF27F50
09A06D10
ENDCHAR
STARTCHAR dollar
ENCODING 36
SWIDTH 475 0
DWIDTH 5 0
BBX 5 10 0 -1
BITMAP
007100
01F400
2DFE50
8F5930
7FB610
07CFB0
691BE0
6FFF80
03F600
00C200
ENDCHAR
STARTCHAR percent
ENCODING 37
SWIDTH 838 0
DWIDTH 9 0
BBX 9 10 0 -1
BITMAP
0010006200
2DF902D100
7C6F1A7000
7D7F4D0000
1CE8B60000
0004D6FE40
000C5D8AB0
004C0D9BB0
00C405EE40
0030000000
ENDCHAR
STARTCHAR ampersand
ENCODING 38
SWIDTH 748 0
DWIDTH 8 0
BBX 8 10 0 -1
BITMAP
00464000
08FFF700
0DE2FB00
0CFDF600
0AFF7000
5FFF55F6
AF8EFEF3
9FCCFFF9
1BFFCAED
00010000
ENDCHAR
STARTCHAR quotesingle
ENCODING 39
SWIDTH 208 0
DWIDTH 2 0
BBX 2 4 0 4
BITMAP
9E
AF
8C
36
ENDCHAR
STARTCHAR parenleft
ENCODING 40
SWIDTH 384 0
DWIDTH 4 0
BBX 4 12 0 -3
BITMAP
0047
07FD
1EB0
5F40
8F10
9F00
9F00
8F10
5F40
1EA0
06FD
0047
ENDCHAR
STARTCHAR parenright
ENCODING 41
SWIDTH 384 0
DWIDTH 4 0
BBX 4 12 0 -3
BITMAP
5600
AFA0
07F3
01F8
00DB
00CD
00CD
00DB
01F8
07F3
AFA0
5500
ENDCHAR
STARTCHAR asterisk
ENCODING 42
SWIDTH 503 0
DWIDTH 6 0
BBX 6 6 0 3
BITMAP
002100
01F900
AEFEF3
7EFFD3
1EFF90
1B6A60
ENDCHAR
STARTCHAR plus
ENCODING 43
SWIDTH 527 0
DWIDTH 6 0
BBX 6 6 0 0
BITMAP
007600
00FB00
8DFFD5
8DFFD5
00EB00
007500
ENDCHAR
STARTCHAR comma
ENCODING 44
SWIDTH 238 0
DWIDTH 3 0
BBX 3 4 0 -2
BITMAP
9F30
8F40
3E10
7400
ENDCHAR
STARTCHAR hyphen
ENCODING 45
SWIDTH 433 0
DWIDTH 5 0
BBX 5 3 0 1
BITMAP
244410
AFFF70
477720
ENDCHAR
STARTCHAR period
ENCODING 46
SWIDTH 237 0
DWIDTH 3 0
BBX 3 2 0 0
BITMAP
9F30
9F30
ENDCHAR
STARTCHAR slash
ENCODING 47
SWIDTH 526 0
DWIDTH 6 0
BBX 6 10 0 -1
BITMAP
000082
0007F8
000DF2
006F90
00DF20
05FA00
0CF300
5FB000
BF3000
470000
ENDCHAR
STARTCHAR zero
ENCODING 48
SWIDTH 608 0
DWIDTH 7 0
BBX 7 10 0 -1
BITMAP
00120000
07FFE300
3FFDFD00
8F70CF30
AF408F60
AF409F50
8F70CF30
3FFDFD00
07FFD300
00120000
ENDCHAR
STARTCHAR one
ENCODING 49
SWIDTH 407 0
DWIDTH 4 0
BBX 4 8 0 0
BITMAP
02CE
2DFF
BFFF
37EF
00EF
00EF
00EF
00CE
ENDCHAR
STARTCHAR two
ENCODING 50
SWIDTH 609 0
DWIDTH 7 0
BBX 7 9 0 0
BITMAP
00120000
09FFD300
6FEDFD00
AF50DF20
6B13EF20
006EF900
1BFE8000
9FFFEE50
8FFFFF60
ENDCHAR
STARTCHAR three
ENCODING 51
SWIDTH 608 0
DWIDTH 7 0
BBX 7 10 0 -1
BITMAP
00120000
09FFE500
4FECFE10
1A54DF20
007FFA00
004BFE20
9F309F50
7FECFF20
09FFE500
00010000
ENDCHAR
STARTCHAR four
ENCODING 52
SWIDTH 592 0
DWIDTH 7 0
BBX 7 9 0 0
BITMAP
01000000
0CD0CE00
1FE0DF10
5FA0DF10
9F82EF10
CFFFFF10
6AAAEF10
0000DF10
0000BD00
ENDCHAR
STARTCHAR five
ENCODING 53
SWIDTH 530 0
DWIDTH 6 0
BBX 6 10 0 -1
BITMAP
001110
2EFFF4
5FEDD3
7FA300
9FFFA0
7FBEF5
1407F8
BFDFF4
4DFF80
002100
ENDCHAR
STARTCHAR six
ENCODING 54
SWIDTH 560 0
DWIDTH 6 0
BBX 6 9 0 -1
BITMAP
007DF8
09FFE7
3FD300
8FDB70
AFFFF8
AF62FD
6FDCFA
09FFB1
001100
ENDCHAR
STARTCHAR seven
ENCODING 55
SWIDTH 561 0
DWIDTH 6 0
BBX 6 9 0 0
BITMAP
011110
BFFFFD
9DDEFD
000AF7
005FD1
00EF50
05FC00
09F600
09F300
ENDCHAR
STARTCHAR eight
ENCODING 56
SWIDTH 582 0
DWIDTH 6 0
BBX 7 10 0 -1
BITMAP
00230000
09FFD200
5FECFB00
6FA5FC00
1FFFF700
6FDBFC00
AF50EF10
7FECFD00
09FFC200
00110000
ENDCHAR
STARTCHAR nine
ENCODING 57
SWIDTH 560 0
DWIDTH 6 0
BBX 6 9 0 0
BITMAP
001100
1BFFB1
8FCBF8
AF54FC
5FFFFD
05ACFB
003DF6
5EFFB0
6FD810
ENDCHAR
STARTCHAR colon
ENCODING 58
SWIDTH 238 0
DWIDTH 3 0
BBX 3 6 0 0
BITMAP
4810
AF50
3710
0000
9F30
9F30
ENDCHAR
STARTCHAR semicolon
ENCODING 59
SWIDTH 237 0
DWIDTH 3 0
BBX 3 8 0 -2
BITMAP
4810
BF50
3710
0000
9F30
9F40
3E10
7400
ENDCHAR
STARTCHAR less
ENCODING 60
SWIDTH 627 0
DWIDTH 7 0
BBX 7 8 0 0
BITMAP
00000620
0004DF90
02AFF910
6EFC3000
BFF50000
18FFB300
002BFF70
00004C60
ENDCHAR
STARTCHAR equal
ENCODING 61
SWIDTH 478 0
DWIDTH 5 0
BBX 5 5 0 0
BITMAP
377750
AFFFE0
155530
AFFFE0
488870
ENDCHAR
STARTCHAR greater
ENCODING 62
SWIDTH 627 0
DWIDTH 7 0
BBX 7 8 0 0
BITMAP
35000000
BFC30000
2AFF9100
004DFE50
0007FF90
04CFE700
8FFA1000
8C300000
ENDCHAR
STARTCHAR question
ENCODING 63
SWIDTH 512 0
DWIDTH 6 0
BBX 6 9 0 0
BITMAP
003200
3EFF80
BF9CF3
4708F4
00AFD1
01FC10
002100
03FA00
03EA00
ENDCHAR
STARTCHAR at
ENCODING 64
SWIDTH 908 0
DWIDTH 10 0
BBX 10 10 0 -2
BITMAP
0002542000
02CFFFFB20
1DD5438DD1
7E2BFFE1E7
AB5F5CC0BA
AB6F8EA0BA
8E1BDE83E7
2FA20AFFC0
05EFE26500
0015600000
ENDCHAR
STARTCHAR A
ENCODING 65
SWIDTH 765 0
DWIDTH 8 0
BBX 9 8 0 0
BITMAP
0009E20000
002FF90000
00AFFE1000
02FEAF8000
09FB7FE100
2FFFFFF800
8FA445FE10
9E2000AE20
ENDCHAR
STARTCHAR B
ENCODING 66
SWIDTH 646 0
DWIDTH 7 0
BBX 7 9 0 0
BITMAP
01110000
7FFFFA00
8FEDFF60
8F606F80
8F6AFF50
8F65BF90
8F603FC0
8FFEFF80
6FFFE910
ENDCHAR
STARTCHAR C
ENCODING 67
SWIDTH 679 0
DWIDTH 7 0
BBX 8 10 0 -1
BITMAP
00002000
019EFE80
0DFFDFF1
7FC10230
AF500000
AF500000
6FC10240
0CFFDFF1
019EFE80
00001000
ENDCHAR
STARTCHAR D
ENCODING 68
SWIDTH 704 0
DWIDTH 8 0
BBX 8 9 0 0
BITMAP
01110000
7FFFE700
8FEEFF90
8F604EF3
8F6009F6
8F6009F6
8F605FF2
8FFFFF80
6FFFC600
ENDCHAR
STARTCHAR E
ENCODING 69
SWIDTH 638 0
DWIDTH 7 0
BBX 7 9 0 0
BITMAP
01111100
7FFFFFA0
8FEDDD80
8F600000
8FFFF600
8FEEE500
8F600000
8FFEEE90
6FFFFF90
ENDCHAR
STARTCHAR F
ENCODING 70
SWIDTH 637 0
DWIDTH 7 0
BBX 7 9 0 0
BITMAP
01111100
7FFFFF90
8FEDDD80
8F600000
8FFFF600
8FFEE500
8F600000
8F600000
6E400000
ENDCHAR
STARTCHAR G
ENCODING 71
SWIDTH 714 0
DWIDTH 8 0
BBX 8 10 0 -1
BITMAP
00012000
02BFFF80
1DFECFE1
7FB10220
AF41CDD3
AF51BDF6
6FD208F6
0CFFDFF6
019FFE80
00001000
ENDCHAR
STARTCHAR H
ENCODING 72
SWIDTH 699 0
DWIDTH 8 0
BBX 8 8 0 0
BITMAP
7F4009F3
8F600BF4
8F600BF4
8FEDDEF4
8FDCCEF4
8F600BF4
8F600BF4
6E4008E2
ENDCHAR
STARTCHAR I
ENCODING 73
SWIDTH 257 0
DWIDTH 3 0
BBX 3 8 0 0
BITMAP
7F40
8F60
8F60
8F60
8F60
8F60
8F60
6E40
ENDCHAR
STARTCHAR J
ENCODING 74
SWIDTH 549 0
DWIDTH 6 0
BBX 6 9 0 -1
BITMAP
0004F7
0005F9
0005F9
0005F9
0005F9
3607F8
BFEFF3
3DFE60
001000
ENDCHAR
STARTCHAR K
ENCODING 75
SWIDTH 639 0
DWIDTH 7 0
BBX 7 10 0 -1
BITMAP
00000100
7F406F60
8F64FF40
8F9EF600
8FFF6000
8FFF7000
8F8EF700
8F63FF50
6E405F60
00000100
ENDCHAR
STARTCHAR L
ENCODING 76
SWIDTH 587 0
DWIDTH 6 0
BBX 7 8 0 0
BITMAP
7F400000
8F600000
8F600000
8F600000
8F600000
8F600000
8FC99910
6FFFFE20
ENDCHAR
STARTCHAR M
ENCODING 77
SWIDTH 870 0
DWIDTH 10 0
BBX 10 8 0 0
BITMAP
7F70001DE1
8FF400AFF2
8FFE17FFF2
8FDFCFEDF2
8F6BFF5CF2
8F62C80CF2
8F60000CF2
6E40000AE1
ENDCHAR
STARTCHAR N
ENCODING 78
SWIDTH 720 0
DWIDTH 8 0
BBX 8 8 0 0
BITMAP
7F7005F6
8FF407F7
8FFD17F7
8FDFB7F7
8F6CFDF7
8F62EFF7
8F604FF7
7F4008F5
ENDCHAR
STARTCHAR O
ENCODING 79
SWIDTH 775 0
DWIDTH 9 0
BBX 9 10 0 -1
BITMAP
0001200000
01AFFE6000
1DFEDFF600
6FC105FE00
AF5000CF30
AF5000CF30
7FC105FE00
1DFEDFF600
01AFFE6000
0001100000
ENDCHAR
STARTCHAR P
ENCODING 80
SWIDTH 632 0
DWIDTH 7 0
BBX 7 9 0 0
BITMAP
01110000
7FFFE600
8FEEFF40
8F606F90
8F739F90
8FFFFE20
8FDC9300
8F600000
6E400000
ENDCHAR
STARTCHAR Q
ENCODING 81
SWIDTH 830 0
DWIDTH 9 0
BBX 9 10 0 -1
BITMAP
0001200000
01AFFE6000
1DFEDFF600
6FC105FE00
AF5000CF30
AF5000CF30
7FC105FE00
1DFEDFFFA0
01AFFD7DA0
0001100000
ENDCHAR
STARTCHAR R
ENCODING 82
SWIDTH 631 0
DWIDTH 7 0
BBX 7 9 0 0
BITMAP
01110000
7FFFE600
8FEEFF50
8F606FA0
8F739F90
8FFFFF20
8FDCEF20
8F609F80
6E402F80
ENDCHAR
STARTCHAR S
ENCODING 83
SWIDTH 583 0
DWIDTH 6 0
BBX 7 10 0 -1
BITMAP
00120000
0AFFE400
6FDBF700
8F802000
3FFEA300
039DFE00
4A10DF20
9FEBFD00
1AFFC300
00010000
ENDCHAR
STARTCHAR T
ENCODING 84
SWIDTH 731 0
DWIDTH 8 0
BBX 8 9 0 0
BITMAP
01111110
CFFFFFFC
588FF885
000EF000
000EF000
000EF000
000EF000
000EF000
000CD000
ENDCHAR
STARTCHAR U
ENCODING 85
SWIDTH 726 0
DWIDTH 8 0
BBX 8 10 0 -1
BITMAP
01000010
7F4005F7
8F6006F8
8F6006F8
8F6006F8
8F6007F7
5FC00CF5
0DFEEFC0
02BFFB20
00011000
ENDCHAR
STARTCHAR V
ENCODING 86
SWIDTH 783 0
DWIDTH 9 0
BBX 9 9 0 0
BITMAP
0100000100
9F20007F40
8F8000EF30
2FE106FA00
09F70DF300
02FE5FB000
009FEF3000
002FFB0000
0008E30000
ENDCHAR
STARTCHAR W
ENCODING 87
SWIDTH 999 0
DWIDTH 11 0
BBX 11 9 0 0
BITMAP
010000000100
AF105F502FA0
9F60BFB07F90
4FB1FFF1CF40
0EF8FEF7FD00
09FFF6FFF800
03FFD0DFF300
00DF808FD000
007D202D6000
ENDCHAR
STARTCHAR X
ENCODING 88
SWIDTH 741 0
DWIDTH 8 0
BBX 8 10 0 -1
BITMAP
02000021
AF4003EC
6FE32DF9
08FECFA0
009FFB00
00BFFD10
0AFCBFC1
8FD21CFA
8E3001DB
01000000
ENDCHAR
STARTCHAR Y
ENCODING 89
SWIDTH 686 0
DWIDTH 8 0
BBX 8 9 0 0
BITMAP
01000010
9E3009F3
7FC04FE1
0CF6DF60
03FFFB00
008FE200
003FB000
003FB000
002EA000
ENDCHAR
STARTCHAR Z
ENCODING 90
SWIDTH 643 0
DWIDTH 7 0
BBX 7 9 0 0
BITMAP
01111100
9FFFFF70
7DDDFF60
000AFB00
006FE100
02EF4000
0CF80000
8FFDDD80
8FFFFFA0
ENDCHAR
STARTCHAR bracketleft
ENCODING 91
SWIDTH 348 0
DWIDTH 4 0
BBX 4 12 0 -3
BITMAP
3784
8FF9
8F40
8F30
8F30
8F30
8F30
8F30
8F30
8F40
8FF9
2774
ENDCHAR
STARTCHAR backslash
ENCODING 92
SWIDTH 528 0
DWIDTH 6 0
BBX 6 10 0 -1
BITMAP
370000
BF4000
5FB000
0CF300
05FA00
00DF20
006FA0
000DF2
0006F8
000082
ENDCHAR
STARTCHAR bracketright
ENCODING 93
SWIDTH 348 0
DWIDTH 4 0
BBX 4 12 0 -3
BITMAP
5871
CFF6
07F6
06F6
06F6
06F6
06F6
06F6
06F6
17F6
CFF6
5771
ENDCHAR
STARTCHAR asciicircum
ENCODING 94
SWIDTH 526 0
DWIDTH 6 0
BBX 6 4 0 2
BITMAP
01C900
1CFF90
6F58F3
020020
ENDCHAR
STARTCHAR underscore
ENCODING 95
SWIDTH 826 0
DWIDTH 9 0
BBX 9 2 0 -3
BITMAP
BFFFFFFFD0
5888888860
ENDCHAR
STARTCHAR grave
ENCODING 96
SWIDTH 482 0
DWIDTH 5 0
BBX 4 3 1 6
BITMAP
5400
DFE3
16A1
ENDCHAR
STARTCHAR a
ENCODING 97
SWIDTH 596 0
DWIDTH 7 0
BBX 7 6 0 0
BITMAP
04A98B00
3FFFFF20
9F84FF20
AF61EF20
4FFFFF20
06DDBE10
ENDCHAR
STARTCHAR b
ENCODING 98
SWIDTH 592 0
DWIDTH 7 0
BBX 7 9 0 0
BITMAP
37100000
8F500000
8F500000
8FAB8000
8FFFFA00
8FA3DF20
8F81DF20
8FFFFC00
7EAEB200
ENDCHAR
STARTCHAR c
ENCODING 99
SWIDTH 517 0
DWIDTH 6 0
BBX 6 6 0 0
BITMAP
04BC81
3FFFF5
AF8360
AF6130
5FFFF4
06EFB1
ENDCHAR
STARTCHAR d
ENCODING 100
SWIDTH 598 0
DWIDTH 7 0
BBX 7 9 0 0
BITMAP
00004600
0000CF20
0000CF20
03AADF20
2FFFFF20
8F94EF20
9F61EF20
4FFFFF20
06DDBE10
ENDCHAR
STARTCHAR e
ENCODING 101
SWIDTH 573 0
DWIDTH 6 0
BBX 6 7 0 -1
BITMAP
04BDB2
4FFDFC
9FA4EF
AFDBB7
5FD9B6
09FFF8
001210
ENDCHAR
STARTCHAR f
ENCODING 102
SWIDTH 450 0
DWIDTH 5 0
BBX 5 9 0 0
BITMAP
004720
06FF70
0CF710
7EFC70
CFFFB0
1DF300
0CF200
0CF200
0BE100
ENDCHAR
STARTCHAR g
ENCODING 103
SWIDTH 585 0
DWIDTH 6 0
BBX 6 9 0 -3
BITMAP
04B99A
3FFFFF
9F74FF
9F63FF
4FFFFF
05BAEF
0A76FD
2EFFF4
016620
ENDCHAR
STARTCHAR h
ENCODING 104
SWIDTH 605 0
DWIDTH 7 0
BBX 7 9 0 0
BITMAP
37100000
8F500000
8F500000
8F9B9100
8FFFFB00
8FA4DF20
8F50BF30
8F50BF30
7F409E20
ENDCHAR
STARTCHAR i
ENCODING 105
SWIDTH 255 0
DWIDTH 3 0
BBX 3 9 0 0
BITMAP
3710
8F50
2610
5B30
8F50
8F50
8F50
8F50
7F40
ENDCHAR
STARTCHAR j
ENCODING 106
SWIDTH 252 0
DWIDTH 3 0
BBX 5 12 -2 -3
BITMAP
002710
008F50
002610
005C30
008F50
008F50
008F50
008F50
009F50
17EF20
6FF800
274000
ENDCHAR
STARTCHAR k
ENCODING 107
SWIDTH 536 0
DWIDTH 6 0
BBX 6 9 0 0
BITMAP
371000
8F5000
8F5000
8F5260
8F9EF4
8FFF80
8FFF50
8FAFF7
7F44E6
ENDCHAR
STARTCHAR l
ENCODING 108
SWIDTH 327 0
DWIDTH 4 0
BBX 4 9 0 0
BITMAP
3710
8F50
8F50
8F50
8F50
8F50
8F50
7FE4
2DF5
ENDCHAR
STARTCHAR m
ENCODING 109
SWIDTH 851 0
DWIDTH 9 0
BBX 9 6 0 0
BITMAP
5B6B83BA10
8FFFFFFF90
8F98FC5FD0
8F64FA0FE0
8F64FA0FE0
7F43E80DC0
ENDCHAR
STARTCHAR n
ENCODING 110
SWIDTH 606 0
DWIDTH 7 0
BBX 7 6 0 0
BITMAP
5B7B9100
8FFFFB00
8F93DF20
8F50BF30
8F50BF30
7E408E20
ENDCHAR
STARTCHAR o
ENCODING 111
SWIDTH 600 0
DWIDTH 7 0
BBX 7 7 0 -1
BITMAP
04BD9100
3FFFFC00
9F71CF30
AF50BF40
5FFEFD10
07EFC300
00010000
ENDCHAR
STARTCHAR p
ENCODING 112
SWIDTH 582 0
DWIDTH 6 0
BBX 7 9 0 -3
BITMAP
5B7B7000
8FFFF900
8FA3EF10
8F92DF10
8FFFFA00
8FBC9100
8F500000
8F500000
37100000
ENDCHAR
STARTCHAR q
ENCODING 113
SWIDTH 582 0
DWIDTH 6 0
BBX 6 9 0 -3
BITMAP
04B99A
3FFFFF
9F74FF
AF63FF
4FFFFF
05BAEF
0000EF
0000EE
000056
ENDCHAR
STARTCHAR r
ENCODING 114
SWIDTH 457 0
DWIDTH 5 0
BBX 5 6 0 0
BITMAP
5B7C80
8FFFB0
8F8110
8F6000
8F6000
7F4000
ENDCHAR
STARTCHAR s
ENCODING 115
SWIDTH 489 0
DWIDTH 5 0
BBX 6 7 0 -1
BITMAP
1ADC60
7FBB80
6FD930
09EFE0
7D8EF1
5EFF80
001000
ENDCHAR
STARTCHAR t
ENCODING 116
SWIDTH 449 0
DWIDTH 5 0
BBX 5 8 0 0
BITMAP
08A000
0CF100
8EFC70
CFFFB0
1DF310
0CF200
0BFD40
03CF50
ENDCHAR
STARTCHAR u
ENCODING 117
SWIDTH 606 0
DWIDTH 7 0
BBX 7 6 0 0
BITMAP
5C307B10
8F60BF30
8F60BF30
7F81CF30
3FFFFF30
06DCAE20
ENDCHAR
STARTCHAR v
ENCODING 118
SWIDTH 638 0
DWIDTH 7 0
BBX 7 6 0 0
BITMAP
6C101C70
AF707FA0
2FE2EF30
08FDF900
01EFE100
005F5000
ENDCHAR
STARTCHAR w
ENCODING 119
SWIDTH 793 0
DWIDTH 9 0
BBX 9 6 0 0
BITMAP
7B04B23C40
AF5CF89F60
4FDFFDEE10
0DFFEFF900
07FE5FF300
01D80CB000
ENDCHAR
STARTCHAR x
ENCODING 120
SWIDTH 567 0
DWIDTH 6 0
BBX 6 6 0 0
BITMAP
6B1099
AFCAFD
1BFFD2
09FFC1
8FECFC
8D21CB
ENDCHAR
STARTCHAR y
ENCODING 121
SWIDTH 604 0
DWIDTH 7 0
BBX 7 9 0 -3
BITMAP
7C104C30
9F80CF40
1EF6FD00
07FFF600
00DFE100
009F8000
01EF1000
06F90000
01820000
ENDCHAR
STARTCHAR z
ENCODING 122
SWIDTH 586 0
DWIDTH 6 0
BBX 7 6 0 0
BITMAP
4CCCC900
6FFFFE00
028FD200
08FD2000
7FFEED10
8FFFFE10
ENDCHAR
STARTCHAR braceleft
ENCODING 123
SWIDTH 381 0
DWIDTH 4 0
BBX 4 12 0 -3
BITMAP
0046
05FE
08F1
09F0
09F0
9FA0
9FB0
09F0
08F0
08F1
04FE
0046
ENDCHAR
STARTCHAR bar
ENCODING 124
SWIDTH 217 0
DWIDTH 2 0
BBX 2 12 0 -3
BITMAP
36
8E
8E
8E
8E
8E
8E
8E
8E
8E
8E
36
ENDCHAR
STARTCHAR braceright
ENCODING 125
SWIDTH 381 0
DWIDTH 4 0
BBX 4 12 0 -3
BITMAP
5500
CF70
0DB0
0CB0
0CC0
08FC
08FB
0CC0
0CB0
0DB0
CF70
5500
ENDCHAR
STARTCHAR asciitilde
ENCODING 126
SWIDTH 651 0
DWIDTH 7 0
BBX 7 4 0 1
BITMAP
00200100
1CFDAF20
5FBEFC10
02013000
ENDCHAR
STARTCHAR exclamdown
ENCODING 161
SWIDTH 268 0
DWIDTH 3 0
BBX 3 9 0 -3
BITMAP
3930
8F70
2620
4A30
7F70
8F70
8F70
7F70
2720
ENDCHAR
STARTCHAR cent
ENCODING 162
SWIDTH 434 0
DWIDTH 5 0
BBX 5 9 0 -1
BITMAP
004100
00E500
03F800
4FFF60
AF3400
9F7820
2DFF50
00E600
00B300
ENDCHAR
STARTCHAR sterling
ENCODING 163
SWIDTH 675 0
DWIDTH 7 0
BBX 8 9 0 0
BITMAP
00001000
008EFD50
07FDBFE0
0CF10230
7EFA7000
9DFD8000
07F60000
0DFDCCB2
1DFFFFE2
ENDCHAR
STARTCHAR currency
ENCODING 164
SWIDTH 677 0
DWIDTH 7 0
BBX 8 9 0 0
BITMAP
24000150
9E867BF1
1EFFFF70
4FA35FB0
7F300BD0
6F500DD0
1EEBDF80
5FEDEFC0
7A0004C1
ENDCHAR
STARTCHAR yen
ENCODING 165
SWIDTH 677 0
DWIDTH 7 0
BBX 8 9 0 0
BITMAP
01000000
9E2009E2
8FB04FE1
0DF6DF50
03FFFA00
0AFFFF30
027FC400
0BFFFF30
013E9200
ENDCHAR
STARTCHAR brokenbar
ENCODING 166
SWIDTH 215 0
DWIDTH 2 0
BBX 2 12 0 -3
BITMAP
35
8E
8E
8E
8E
35
36
8E
8E
8E
8E
25
ENDCHAR
STARTCHAR section
ENCODING 167
SWIDTH 560 0
DWIDTH 6 0
BBX 6 12 0 -3
BITMAP
016620
2EFFF4
8F96C2
7FB510
3FFFF5
8F98FC
7FB7FC
1BFFF8
0227FC
9F76FC
4EFFF4
026620
ENDCHAR
STARTCHAR dieresis
ENCODING 168
SWIDTH 489 0
DWIDTH 5 0
BBX 6 3 0 6
BITMAP
271371
8F69F5
261261
ENDCHAR
STARTCHAR copyright
ENCODING 169
SWIDTH 711 0
DWIDTH 8 0
BBX 8 8 0 1
BITMAP
00022000
08ECCD60
5C3AA4D2
A6E98386
A6F10078
86CCC496
2D4776E1
05CEEB20
ENDCHAR
STARTCHAR ordfeminine
ENCODING 170
SWIDTH 445 0
DWIDTH 5 0
BBX 5 5 0 3
BITMAP
1ABB50
8EAF70
AC4F70
4FFF70
023310
ENDCHAR
STARTCHAR guillemotleft
ENCODING 171
SWIDTH 668 0
DWIDTH 7 0
BBX 8 6 0 0
BITMAP
00760490
08FA4FE1
7FB4FE20
AF85FC10
1BF87FC0
01B907C1
ENDCHAR
STARTCHAR logicalnot
ENCODING 172
SWIDTH 526 0
DWIDTH 6 0
BBX 6 4 0 1
BITMAP
9DDDD6
BFFFF9
0111D9
000074
ENDCHAR
STARTCHAR registered
ENCODING 174
SWIDTH 711 0
DWIDTH 8 0
BBX 8 8 0 1
BITMAP
00022000
08ECCD60
5C6CA4D2
A58BB986
A48EE678
868BB896
2D6338E1
05CEEB20
ENDCHAR
STARTCHAR degree
ENCODING 176
SWIDTH 407 0
DWIDTH 4 0
BBX 5 5 0 4
BITMAP
046100
6FED00
AA3F20
6FDD00
057100
ENDCHAR
STARTCHAR plusminus
ENCODING 177
SWIDTH 505 0
DWIDTH 6 0
BBX 6 6 0 0
BITMAP
00D700
6BFEB2
8DFED3
00E800
378870
7FFFE1
ENDCHAR
STARTCHAR twosuperior
ENCODING 178
SWIDTH 455 0
DWIDTH 5 0
BBX 5 7 0 2
BITMAP
013100
3EFD20
AF7F80
686F70
1BFC10
AFFFB0
499970
ENDCHAR
STARTCHAR threesuperior
ENCODING 179
SWIDTH 457 0
DWIDTH 5 0
BBX 5 7 0 2
BITMAP
013100
2EFE30
5E5F90
01DF50
695EA0
8FCF80
07A700
ENDCHAR
STARTCHAR acute
ENCODING 180
SWIDTH 605 0
DWIDTH 7 0
BBX 4 3 1 6
BITMAP
0044
3EFC
1A61
ENDCHAR
STARTCHAR mu
ENCODING 181
SWIDTH 601 0
DWIDTH 7 0
BBX 7 9 0 -3
BITMAP
5B307B10
8F50BF30
8F50BF30
8F81DF30
8FFFFF30
8FDCAD10
8F500000
8F500000
26100000
ENDCHAR
STARTCHAR paragraph
ENCODING 182
SWIDTH 614 0
DWIDTH 7 0
BBX 7 10 0 -3
BITMAP
2ABBBB00
9FFD9F20
AFFC6F20
5EFC6F20
00BC6F20
00BC6F20
00BC6F20
00BC6F20
00BC6F10
00452700
ENDCHAR
STARTCHAR periodcentered
ENCODING 183
SWIDTH 237 0
DWIDTH 3 0
BBX 3 3 0 2
BITMAP
3610
BF50
5910
ENDCHAR
STARTCHAR cedilla
ENCODING 184
SWIDTH 559 0
DWIDTH 6 0
BBX 2 3 2 -2
BITMAP
32
AE
DC
ENDCHAR
STARTCHAR onesuperior
ENCODING 185
SWIDTH 321 0
DWIDTH 4 0
BBX 4 7 0 2
BITMAP
0010
1BF1
AFF1
4BF1
08F1
08F1
0490
ENDCHAR
STARTCHAR ordmasculine
ENCODING 186
SWIDTH 439 0
DWIDTH 5 0
BBX 5 5 0 3
BITMAP
08B700
7EAF50
AC0E70
5FFF30
036200
ENDCHAR
STARTCHAR guillemotright
ENCODING 187
SWIDTH 669 0
DWIDTH 7 0
BBX 8 6 0 0
BITMAP
58029100
AF95FC10
0AF86FC0
07FB3EE1
7FC4EE30
8B14D300
ENDCHAR
STARTCHAR onequarter
ENCODING 188
SWIDTH 786 0
DWIDTH 9 0
BBX 8 10 0 -1
BITMAP
01400440
2DD00C40
3CD06B00
06D0D300
06D6A748
002D3F8F
00795FAF
01E23BCF
0880003D
02100000
ENDCHAR
STARTCHAR onehalf
ENCODING 189
SWIDTH 804 0
DWIDTH 9 0
BBX 9 10 0 -1
BITMAP
0140044000
2DD00C4000
3CD06B0000
06D0D30000
06D6A69300
002D6FCD00
0079389E00
01E21CF800
08804FFF20
0210000000
ENDCHAR
STARTCHAR threequarters
ENCODING 190
SWIDTH 842 0
DWIDTH 9 0
BBX 9 10 0 -1
BITMAP
0361007100
2FDD03D000
04BC0B5000
388F5C0000
3EECC67550
0136B7DA90
000D3ACD90
006A08BE90
00D2000980
0030000000
ENDCHAR
STARTCHAR questiondown
ENCODING 191
SWIDTH 511 0
DWIDTH 6 0
BBX 6 9 0 -3
BITMAP
01B900
01FC00
002100
01D900
3EF700
AF4150
9F7AF6
2EFFD1
015510
ENDCHAR
STARTCHAR Agrave
ENCODING 192
SWIDTH 765 0
DWIDTH 8 0
BBX 9 11 0 0
BITMAP
0046200000
009FF60000
0004930000
0009E20000
002FF90000
00AFFE1000
02FEAF8000
09FB7FE100
2FFFFFF800
8FA445FE10
9E2000AE20
ENDCHAR
STARTCHAR Aacute
ENCODING 193
SWIDTH 765 0
DWIDTH 8 0
BBX 9 11 0 0
BITMAP
0002690000
000FFE1000
0006400000
0009E20000
002FF90000
00AFFE1000
02FEAF8000
09FB7FE100
2FFFFFF800
8FA445FE10
9E2000AE20
ENDCHAR
STARTCHAR Acircumflex
ENCODING 194
SWIDTH 765 0
DWIDTH 8 0
BBX 9 11 0 0
BITMAP
0028950000
00DFEF5000
0032150000
0009E20000
002FF90000
00AFFE1000
02FEAF8000
09FB7FE100
2FFFFFF800
8FA445FE10
9E2000AE20
ENDCHAR
STARTCHAR Atilde
ENCODING 195
SWIDTH 765 0
DWIDTH 8 0
BBX 9 11 0 0
BITMAP
004A582000
00DDFF3000
0020320000
0009E20000
002FF90000
00AFFE1000
02FEAF8000
09FB7FE100
2FFFFFF800
8FA445FE10
9E2000AE20
ENDCHAR
STARTCHAR Adieresis
ENCODING 196
SWIDTH 765 0
DWIDTH 8 0
BBX 9 11 0 0
BITMAP
01A61A6000
03FB3FA000
0031031000
0009E20000
002FF90000
00AFFE1000
02FEAF8000
09FB7FE100
2FFFFFF800
8FA445FE10
9E2000AE20
ENDCHAR
STARTCHAR Aring
ENCODING 197
SWIDTH 765 0
DWIDTH 8 0
BBX 9 11 0 0
BITMAP
0000100000
001BC50000
002A480000
000CF30000
002FF90000
00AFFF1000
02FEAF8000
09FB7FE100
2FFFFFF800
8FA445FE10
9E2000AE20
ENDCHAR
STARTCHAR AE
ENCODING 198
SWIDTH 1148 0
DWIDTH 13 0
BBX 13 9 0 0
BITMAP
00000011111100
000005FFFFFF40
00004FFFDDDD30
0003EFFF100000
002EF8EFFFE100
02DFC4EFEED100
1CFFFFFF000000
BFC555EFEEEE30
BC1000AFFFFF30
ENDCHAR
STARTCHAR Ccedilla
ENCODING 199
SWIDTH 679 0
DWIDTH 7 0
BBX 8 12 0 -3
BITMAP
00002000
019FFE80
1DFEDFF1
7FC10230
AF500000
AF500000
6FC20240
1CFFDFF1
018EFE80
0006D500
0006E400
00001000
ENDCHAR
STARTCHAR Egrave
ENCODING 200
SWIDTH 638 0
DWIDTH 7 0
BBX 7 11 0 0
BITMAP
00551000
00DFF300
0126A200
7FFFFFA0
8FEDDD80
8F600000
8FFFF600
8FEEE500
8F600000
8FFEEE90
6FFFFF90
ENDCHAR
STARTCHAR Eacute
ENCODING 201
SWIDTH 638 0
DWIDTH 7 0
BBX 7 11 0 0
BITMAP
00159200
00BFF500
01562100
7FFFFFA0
8FEDDD80
8F600000
8FFFF600
8FEEE500
8F600000
8FFEEE90
6FFFFF90
ENDCHAR
STARTCHAR Ecircumflex
ENCODING 202
SWIDTH 638 0
DWIDTH 7 0
BBX 7 11 0 0
BITMAP
016A7100
08FEFA00
02515300
7FFFFFA0
8FEDDD80
8F600000
8FFFF600
8FEEE500
8F600000
8FFEEE90
6FFFFF90
ENDCHAR
STARTCHAR Edieresis
ENCODING 203
SWIDTH 638 0
DWIDTH 7 0
BBX 7 11 0 0
BITMAP
07907900
0CF1DF10
02413400
7FFFFFA0
8FEDDD80
8F600000
8FFFF600
8FEEE500
8F600000
8FFEEE90
6FFFFF90
ENDCHAR
STARTCHAR Igrave
ENCODING 204
SWIDTH 267 0
DWIDTH 3 0
BBX 4 11 -1 0
BITMAP
2720
7FF9
0385
06F5
08F7
08F7
08F7
08F7
08F7
08F7
06E5
ENDCHAR
STARTCHAR Iacute
ENCODING 205
SWIDTH 269 0
DWIDTH 3 0
BBX 4 11 0 0
BITMAP
1593
AFF5
4610
6F50
8F70
8F70
8F70
8F70
8F70
8F70
5E50
ENDCHAR
STARTCHAR Icircumflex
ENCODING 206
SWIDTH 270 0
DWIDTH 3 0
BBX 5 11 -1 0
BITMAP
16A610
9FEF90
141410
06F500
08F700
08F700
08F700
08F700
08F700
08F700
05E500
ENDCHAR
STARTCHAR Idieresis
ENCODING 207
SWIDTH 268 0
DWIDTH 3 0
BBX 5 11 -1 0
BITMAP
890980
EF0EE0
220220
06F600
07F700
07F700
07F700
07F700
07F700
07F700
05E500
ENDCHAR
STARTCHAR Eth
ENCODING 208
SWIDTH 775 0
DWIDTH 9 0
BBX 9 9 0 0
BITMAP
0011000000
0AFFFD5000
0CFEEFF600
0CF306FE00
7EFC10CF30
6EFB00CF30
0CF307FD00
0CFEFFF500
09FFEB4000
ENDCHAR
STARTCHAR Ntilde
ENCODING 209
SWIDTH 720 0
DWIDTH 8 0
BBX 8 11 0 0
BITMAP
006A4900
02FDFD00
00203100
7F7005F6
8FF407F7
8FFD17F7
8FDFB7F7
8F6CFDF7
8F62EFF7
8F604FF7
7F4008F5
ENDCHAR
STARTCHAR Ograve
ENCODING 210
SWIDTH 775 0
DWIDTH 9 0
BBX 9 12 0 -1
BITMAP
0037200000
008FF80000
0004A40000
01AFFE6000
1DFEDFF600
6FC105FE00
AF5000CF30
AF5000CF30
7FC105FE00
1DFEDFF600
01AFFE6000
0001100000
ENDCHAR
STARTCHAR Oacute
ENCODING 211
SWIDTH 775 0
DWIDTH 9 0
BBX 9 12 0 -1
BITMAP
0002690000
001FFE1000
0007600000
01AFFE6000
1DFEDFF600
6FC105FE00
AF5000CF30
AF5000CF30
7FC105FE00
1DFEDFF600
01AFFE6000
0001100000
ENDCHAR
STARTCHAR Ocircumflex
ENCODING 212
SWIDTH 775 0
DWIDTH 9 0
BBX 9 12 0 -1
BITMAP
0027A50000
00CFEF6000
0024250000
01AFFE6000
1DFEDFF600
6FC105FE00
AF5000CF30
AF5000CF30
7FC105FE00
1DFEDFF600
01AFFE6000
0001100000
ENDCHAR
STARTCHAR Otilde
ENCODING 213
SWIDTH 775 0
DWIDTH 9 0
BBX 9 12 0 -1
BITMAP
0019765000
009DEF7000
0012330000
01AFFE6000
1DFEDFF600
6FC105FE00
AF5000CF30
AF5000CF30
7FC105FE00
1DFEDFF600
01AFFE6000
0001100000
ENDCHAR
STARTCHAR Odieresis
ENCODING 214
SWIDTH 775 0
DWIDTH 9 0
BBX 9 12 0 -1
BITMAP
01A62A5000
03FA4FA000
0032231000
01AFFE6000
1DFEDFF600
6FC105FE00
AF5000CF30
AF5000CF30
7FC105FE00
1DFEDFF600
01AFFE6000
0001100000
ENDCHAR
STARTCHAR multiply
ENCODING 215
SWIDTH 521 0
DWIDTH 6 0
BBX 6 6 0 0
BITMAP
250160
9F8BF5
1DFFA0
1BFF80
9FADF5
380191
ENDCHAR
STARTCHAR Oslash
ENCODING 216
SWIDTH 775 0
DWIDTH 9 0
BBX 9 10 0 -1
BITMAP
0001256000
01AFFFF000
1DFEEFF600
6FC1EFFE00
AF46F9CF30
AF5DF2CF30
7FEF95FE00
1DFFEFF600
05FFFE6000
0183100000
ENDCHAR
STARTCHAR Ugrave
ENCODING 217
SWIDTH 726 0
DWIDTH 8 0
BBX 8 12 0 -1
BITMAP
00740000
03FFD000
01277010
7F4005F7
8F6006F8
8F6006F8
8F6006F8
8F6007F7
5FC00CF5
0DFEEFC0
02BFFB20
00011000
ENDCHAR
STARTCHAR Uacute
ENCODING 218
SWIDTH 726 0
DWIDTH 8 0
BBX 8 12 0 -1
BITMAP
00026900
001FFE10
01064010
7F4005F7
8F6006F8
8F6006F8
8F6006F8
8F6007F7
5FC00CF5
0DFEEFC0
02BFFB20
00011000
ENDCHAR
STARTCHAR Ucircumflex
ENCODING 219
SWIDTH 726 0
DWIDTH 8 0
BBX 8 12 0 -1
BITMAP
00389400
00EFEF40
01321510
7F4005F7
8F6006F8
8F6006F8
8F6006F8
8F6007F7
5FC00CF5
0DFEEFC0
02BFFB20
00011000
ENDCHAR
STARTCHAR Udieresis
ENCODING 220
SWIDTH 726 0
DWIDTH 8 0
BBX 8 12 0 -1
BITMAP
03A34A30
07F77F70
01311310
7F4005F7
8F6006F8
8F6006F8
8F6006F8
8F6007F7
5FC00CF5
0DFEEFC0
02BFFB20
00011000
ENDCHAR
STARTCHAR Yacute
ENCODING 221
SWIDTH 686 0
DWIDTH 8 0
BBX 8 11 0 0
BITMAP
00049400
008FF700
01361010
9E3009F3
7FC04FE1
0CF6DF60
03FFFB00
008FE200
003FB000
003FB000
002EA000
ENDCHAR
STARTCHAR Thorn
ENCODING 222
SWIDTH 634 0
DWIDTH 7 0
BBX 7 8 0 0
BITMAP
7F400000
8FFEC500
8FFFFF40
8F607F90
8F618F90
8FFFFF30
8FEDB400
6E400000
ENDCHAR
STARTCHAR germandbls
ENCODING 223
SWIDTH 633 0
DWIDTH 7 0
BBX 7 10 0 -1
BITMAP
00342000
2DFFF600
7FB8F900
8F59F400
8F5DE100
8F57FD20
8F506F80
8F5CBF90
8F6DFD30
25000000
ENDCHAR
STARTCHAR agrave
ENCODING 224
SWIDTH 596 0
DWIDTH 7 0
BBX 7 9 0 0
BITMAP
00630000
02FFD000
00279000
04A98B00
3FFFFF20
9F84FF20
AF61EF20
4FFFFF20
06DDBE10
ENDCHAR
STARTCHAR aacute
ENCODING 225
SWIDTH 596 0
DWIDTH 7 0
BBX 7 9 0 0
BITMAP
00036000
00DFF200
00872000
04A98B00
3FFFFF20
9F84FF20
AF61EF20
4FFFFF20
06DDBE10
ENDCHAR
STARTCHAR acircumflex
ENCODING 226
SWIDTH 596 0
DWIDTH 7 0
BBX 7 9 0 0
BITMAP
00374000
07FFFA00
02727400
04A98B00
3FFFFF20
9F84FF20
AF61EF20
4FFFFF20
06DDBE10
ENDCHAR
STARTCHAR atilde
ENCODING 227
SWIDTH 596 0
DWIDTH 7 0
BBX 7 9 0 0
BITMAP
00653300
07FFF900
02446100
04A98B00
3FFFFF20
9F84FF20
AF61EF20
4FFFFF20
06DDBE10
ENDCHAR
STARTCHAR adieresis
ENCODING 228
SWIDTH 596 0
DWIDTH 7 0
BBX 7 9 0 0
BITMAP
05605600
0DF1EF00
04604500
04A98B00
3FFFFF20
9F84FF20
AF61EF20
4FFFFF20
06DDBE10
ENDCHAR
STARTCHAR aring
ENCODING 229
SWIDTH 596 0
DWIDTH 7 0
BBX 7 9 0 0
BITMAP
00030000
00679000
004A6000
04A98B00
3FFFFF20
9F84FF20
AF61EF20
4FFFFF20
06DDBE10
ENDCHAR
STARTCHAR ae
ENCODING 230
SWIDTH 910 0
DWIDTH 10 0
BBX 10 7 0 -1
BITMAP
18CC66BC70
7FFFFFEEF7
1933FF77FA
5EEDFFBBA4
AF57FFC9C3
5EFE69EFD3
0010000100
ENDCHAR
STARTCHAR ccedilla
ENCODING 231
SWIDTH 524 0
DWIDTH 6 0
BBX 6 9 0 -3
BITMAP
04BDA1
3FFFF6
AF8260
AF7030
5FFFF5
06EFC2
007D30
009E30
000100
ENDCHAR
STARTCHAR egrave
ENCODING 232
SWIDTH 573 0
DWIDTH 6 0
BBX 6 10 0 -1
BITMAP
016200
06FF90
004860
04BDB2
4FFDFC
9FA4EF
AFDBB7
5FD9B6
09FFF8
001210
ENDCHAR
STARTCHAR eacute
ENCODING 233
SWIDTH 573 0
DWIDTH 6 0
BBX 6 10 0 -1
BITMAP
000460
01EFF1
009720
04BDB2
4FFDFC
9FA4EF
AFDBB7
5FD9B6
09FFF8
001210
ENDCHAR
STARTCHAR ecircumflex
ENCODING 234
SWIDTH 573 0
DWIDTH 6 0
BBX 6 10 0 -1
BITMAP
004620
0CFFF5
056381
04BDB2
4FFDFC
9FA4EF
AFDBB7
5FD9B6
09FFF8
001210
ENDCHAR
STARTCHAR edieresis
ENCODING 235
SWIDTH 573 0
DWIDTH 6 0
BBX 6 10 0 -1
BITMAP
173173
4FA5F9
163163
04BDB2
4FFDFC
9FA4EF
AFDBB7
5FD9B6
09FFF8
001210
ENDCHAR
STARTCHAR igrave
ENCODING 236
SWIDTH 255 0
DWIDTH 3 0
BBX 4 9 -1 0
BITMAP
2620
7FF8
0495
05B3
08F5
08F5
08F5
08F5
07F4
ENDCHAR
STARTCHAR iacute
ENCODING 237
SWIDTH 255 0
DWIDTH 3 0
BBX 4 9 0 0
BITMAP
0261
AFF5
6830
5B30
8F50
8F50
8F50
8F50
7F40
ENDCHAR
STARTCHAR icircumflex
ENCODING 238
SWIDTH 255 0
DWIDTH 3 0
BBX 5 9 -1 0
BITMAP
047300
AFFF70
462720
05B300
08F500
08F500
08F500
08F500
07F400
ENDCHAR
STARTCHAR idieresis
ENCODING 239
SWIDTH 255 0
DWIDTH 3 0
BBX 6 9 -2 0
BITMAP
065065
1FD1FD
054064
005B30
008F60
008F60
008F60
008F60
006F40
ENDCHAR
STARTCHAR eth
ENCODING 240
SWIDTH 585 0
DWIDTH 6 0
BBX 7 10 0 -1
BITMAP
00693000
03FF5000
01DBF300
0289DB00
2EFFFF00
9F83EF20
AF40DF10
5FFEFB00
07EFB100
00010000
ENDCHAR
STARTCHAR ntilde
ENCODING 241
SWIDTH 606 0
DWIDTH 7 0
BBX 7 9 0 0
BITMAP
01734200
0AFFF600
03255000
5B7B9100
8FFFFB00
8F93DF20
8F50BF30
8F50BF30
7E408E20
ENDCHAR
STARTCHAR ograve
ENCODING 242
SWIDTH 600 0
DWIDTH 7 0
BBX 7 10 0 -1
BITMAP
00620000
04FFB000
00387000
04BD9100
3FFFFC00
9F71CF30
AF50BF40
5FFEFD10
07EFC300
00010000
ENDCHAR
STARTCHAR oacute
ENCODING 243
SWIDTH 600 0
DWIDTH 7 0
BBX 7 10 0 -1
BITMAP
00036000
00DFF200
00972000
04BD9100
3FFFFC00
9F71CF30
AF50BF40
5FFEFD10
07EFC300
00010000
ENDCHAR
STARTCHAR ocircumflex
ENCODING 244
SWIDTH 600 0
DWIDTH 7 0
BBX 7 10 0 -1
BITMAP
00472000
0BFFF600
04637200
04BD9100
3FFFFC00
9F71CF30
AF50BF40
5FFEFD10
07EFC300
00010000
ENDCHAR
STARTCHAR otilde
ENCODING 245
SWIDTH 600 0
DWIDTH 7 0
BBX 7 10 0 -1
BITMAP
01734200
0BFFF500
04255000
04BD9100
3FFFFC00
9F71CF30
AF50BF40
5FFEFD10
07EFC300
00010000
ENDCHAR
STARTCHAR odieresis
ENCODING 246
SWIDTH 600 0
DWIDTH 7 0
BBX 7 10 0 -1
BITMAP
07417400
3FB4FB00
06306300
04BD9100
3FFFFC00
9F71CF30
AF50BF40
5FFEFD10
07EFC300
00010000
ENDCHAR
STARTCHAR divide
ENCODING 247
SWIDTH 503 0
DWIDTH 6 0
BBX 6 6 0 0
BITMAP
01E800
00B600
7CCCC2
7CCCB2
01B600
01E800
ENDCHAR
STARTCHAR oslash
ENCODING 248
SWIDTH 600 0
DWIDTH 7 0
BBX 7 10 0 -2
BITMAP
00004400
0001EE00
04BEF900
3FFFFC00
9F71CF30
AF50BF40
5FFDFE10
0DFFD300
4FA10000
29200000
ENDCHAR
STARTCHAR ugrave
ENCODING 249
SWIDTH 606 0
DWIDTH 7 0
BBX 7 9 0 0
BITMAP
01620000
04FFB000
00387000
5C307B10
8F60BF30
8F60BF30
7F81CF30
3FFFFF30
06DCAE20
ENDCHAR
STARTCHAR uacute
ENCODING 250
SWIDTH 606 0
DWIDTH 7 0
BBX 7 9 0 0
BITMAP
00026100
00BFF400
00783000
5C307B10
8F60BF30
8F60BF30
7F81CF30
3FFFFF30
06DCAE20
ENDCHAR
STARTCHAR ucircumflex
ENCODING 251
SWIDTH 606 0
DWIDTH 7 0
BBX 7 9 0 0
BITMAP
00473000
0BFFF700
04627200
5C307B10
8F60BF30
8F60BF30
7F81CF30
3FFFFF30
06DCAE20
ENDCHAR
STARTCHAR udieresis
ENCODING 252
SWIDTH 606 0
DWIDTH 7 0
BBX 7 9 0 0
BITMAP
07407400
2FC3FB00
06406300
5C307B10
8F60BF30
8F60BF30
7F81CF30
3FFFFF30
06DCAE20
ENDCHAR
STARTCHAR yacute
ENCODING 253
SWIDTH 604 0
DWIDTH 7 0
BBX 7 12 0 -3
BITMAP
00036000
00BFF300
00783000
7C104C30
9F80CF40
1EF6FD00
07FFF600
00DFE100
009F8000
01EF1000
06F90000
01820000
ENDCHAR
STARTCHAR thorn
ENCODING 254
SWIDTH 580 0
DWIDTH 6 0
BBX 7 12 0 -3
BITMAP
49100000
8F300000
8F400000
8F9B7000
8FFFF800
8F94EF00
8F61EF10
8FFFFA00
8FCEA100
8F300000
8F300000
27000000
ENDCHAR
STARTCHAR ydieresis
ENCODING 255
SWIDTH 604 0
DWIDTH 7 0
BBX 7 12 0 -3
BITMAP
06506500
0FE1FD00
05405400
7C104C30
9F80CF40
1EF6FD00
07FFF600
00DFE100
009F8000
01EF1000
06F90000
01820000
ENDCHAR
STARTCHAR dotlessi
ENCODING 305
SWIDTH 255 0
DWIDTH 3 0
BBX 3 6 0 0
BITMAP
5B30
8F50
8F50
8F50
8F50
7F40
ENDCHAR
STARTCHAR Lslash
ENCODING 321
SWIDTH 687 0
DWIDTH 8 0
BBX 8 8 0 0
BITMAP
06F60000
07F70000
07F96000
4CFFE100
8EF90000
07F70000
07FC9991
05FFFFF3
ENDCHAR
STARTCHAR lslash
ENCODING 322
SWIDTH 468 0
DWIDTH 5 0
BBX 5 9 0 0
BITMAP
037100
08F600
08F600
08F850
5CFFD0
AEF700
08F600
07FE40
02DF50
ENDCHAR
STARTCHAR OE
ENCODING 338
SWIDTH 1092 0
DWIDTH 12 0
BBX 12 9 0 0
BITMAP
000011111110
01AFFFFFFFFA
1DFFDEFEDDD8
7FC108F60000
AF5008FFFF60
AF5008FEEE50
6FC208F60000
0CFFEEFFEEE8
018EFFFFFFF9
ENDCHAR
STARTCHAR oe
ENCODING 339
SWIDTH 944 0
DWIDTH 10 0
BBX 11 7 0 -1
BITMAP
04BD94ACA200
3FFFFFFDFD00
9F72DFB4DF10
AF50CFDBB800
5FFDFFE9B800
07EFC7DFE800
000100010000
ENDCHAR
STARTCHAR Scaron
ENCODING 352
SWIDTH 583 0
DWIDTH 6 0
BBX 7 12 0 -1
BITMAP
07759100
0CFFE400
00461000
0AFFE400
6FDBF700
8F802000
3FFEA300
039DFE00
4A10DF20
9FEBFD00
1AFFC300
00010000
ENDCHAR
STARTCHAR scaron
ENCODING 353
SWIDTH 489 0
DWIDTH 5 0
BBX 6 10 0 -1
BITMAP
261530
8FFFA0
048500
1ADC60
7FBB80
6FD930
09EFE0
7D8EF1
5EFF80
001000
ENDCHAR
STARTCHAR Ydieresis
ENCODING 376
SWIDTH 686 0
DWIDTH 8 0
BBX 8 11 0 0
BITMAP
05A16A10
0AF4BF30
03301310
9E3009F3
7FC04FE1
0CF6DF60
03FFFB00
008FE200
003FB000
003FB000
002EA000
ENDCHAR
STARTCHAR Zcaron
ENCODING 381
SWIDTH 643 0
DWIDTH 7 0
BBX 7 11 0 0
BITMAP
04949400
07FFF800
01263100
9FFFFF70
7DDDFF60
000AFB00
006FE100
02EF4000
0CF80000
8FFDDD80
8FFFFFA0
ENDCHAR
STARTCHAR zcaron
ENCODING 382
SWIDTH 586 0
DWIDTH 6 0
BBX 7 9 0 0
BITMAP
04516100
0CFFF600
01583000
4CCCC900
6FFFFE00
028FD200
08FD2000
7FFEED10
8FFFFE10
ENDCHAR
STARTCHAR florin
ENCODING 402
SWIDTH 529 0
DWIDTH 6 0
BBX 6 12 0 -3
BITMAP
000011
001CF9
009FC5
05DF73
1FFFF9
07FE62
02FC00
04FA00
06F800
3BF600
EFD100
661000
ENDCHAR
STARTCHAR circumflex
ENCODING 710
SWIDTH 603 0
DWIDTH 7 0
BBX 5 3 1 6
BITMAP
047200
BFFF60
463820
ENDCHAR
STARTCHAR caron
ENCODING 711
SWIDTH 600 0
DWIDTH 7 0
BBX 5 3 1 6
BITMAP
451610
CFFF60
158300
ENDCHAR
STARTCHAR dotaccent
ENCODING 729
SWIDTH 285 0
DWIDTH 3 0
BBX 3 3 0 7
BITMAP
2940
5F80
0410
ENDCHAR
STARTCHAR ring
ENCODING 730
SWIDTH 378 0
DWIDTH 4 0
BBX 4 4 0 7
BITMAP
0010
2CC3
4867
0891
ENDCHAR
STARTCHAR ogonek
ENCODING 731
SWIDTH 570 0
DWIDTH 6 0
BBX 2 4 2 -3
BITMAP
23
EA
DD
01
ENDCHAR
STARTCHAR tilde
ENCODING 732
SWIDTH 584 0
DWIDTH 6 0
BBX 6 3 0 6
BITMAP
037260
1EFFF2
051630
ENDCHAR
STARTCHAR endash
ENCODING 8211
SWIDTH 561 0
DWIDTH 6 0
BBX 6 2 0 2
BITMAP
AEEEEC
9DDDDC
ENDCHAR
STARTCHAR emdash
ENCODING 8212
SWIDTH 693 0
DWIDTH 8 0
BBX 8 2 0 2
BITMAP
AEEEEED4
9DDDDDD4
ENDCHAR
STARTCHAR quoteleft
ENCODING 8216
SWIDTH 237 0
DWIDTH 3 0
BBX 3 4 0 4
BITMAP
1C30
8B00
BF40
6B20
ENDCHAR
STARTCHAR quoteright
ENCODING 8217
SWIDTH 237 0
DWIDTH 3 0
BBX 3 4 0 4
BITMAP
9F40
8F40
3E10
7400
ENDCHAR
STARTCHAR quotesinglbase
ENCODING 8218
SWIDTH 237 0
DWIDTH 3 0
BBX 3 4 0 -2
BITMAP
9F30
9F40
3E10
7400
ENDCHAR
STARTCHAR quotedblleft
ENCODING 8220
SWIDTH 482 0
DWIDTH 5 0
BBX 5 4 0 4
BITMAP
1C34D0
8B0D60
BF5FF0
6B2990
ENDCHAR
STARTCHAR quotedblright
ENCODING 8221
SWIDTH 482 0
DWIDTH 5 0
BBX 5 4 0 4
BITMAP
9F4EE0
8F4DE0
3E17A0
740A20
ENDCHAR
STARTCHAR quotedblbase
ENCODING 8222
SWIDTH 482 0
DWIDTH 5 0
BBX 5 4 0 -2
BITMAP
9F4EE0
9F4DE0
3E17A0
740A20
ENDCHAR
STARTCHAR dagger
ENCODING 8224
SWIDTH 527 0
DWIDTH 6 0
BBX 6 11 0 -2
BITMAP
002100
00FC00
01FD00
69FE94
BFFFF8
02FD10
01FD00
01FD00
01FD00
01FD00
00EC00
ENDCHAR
STARTCHAR daggerdbl
ENCODING 8225
SWIDTH 527 0
DWIDTH 6 0
BBX 6 11 0 -2
BITMAP
002100
00FC00
01FD00
69FE94
BFFFF8
02FD10
24FD31
CFFFF9
47FE73
01FD00
00EC00
ENDCHAR
STARTCHAR bullet
ENCODING 8226
SWIDTH 342 0
DWIDTH 4 0
BBX 4 4 0 1
BITMAP
6FE3
AFF7
6FE3
0110
ENDCHAR
STARTCHAR ellipsis
ENCODING 8230
SWIDTH 911 0
DWIDTH 10 0
BBX 10 2 0 0
BITMAP
9F30EE03F9
9F30DD03F9
ENDCHAR
STARTCHAR perthousand
ENCODING 8240
SWIDTH 1223 0
DWIDTH 13 0
BBX 13 10 0 -1
BITMAP
00100061000000
2DF903D0000000
7C6F1A60000000
7D7F4D00000000
1CE8B500000100
0004C6FE43EF70
000C4D9AB9B7E0
005B0C9AB9B8E0
00D305EE42DE60
00300000000000
ENDCHAR
STARTCHAR guilsinglleft
ENCODING 8249
SWIDTH 383 0
DWIDTH 4 0
BBX 4 6 0 0
BITMAP
0078
08FD
7FD2
AFC1
0BFB
00AB
ENDCHAR
STARTCHAR guilsinglright
ENCODING 8250
SWIDTH 383 0
DWIDTH 4 0
BBX 4 6 0 0
BITMAP
5900
AFB0
1CFB
09FD
8FD2
8C20
ENDCHAR
STARTCHAR fraction
ENCODING 8260
SWIDTH 433 0
DWIDTH 5 0
BBX 6 10 0 -1
BITMAP
000025
0000B6
0003D0
000B50
004C00
00C400
05B000
0D3000
6A0000
110000
ENDCHAR
STARTCHAR Euro
ENCODING 8364
SWIDTH 612 0
DWIDTH 7 0
BBX 7 9 0 0
BITMAP
00157720
02DFFF60
08FC7720
8EFCB800
4FF77500
AFFEEB00
2BF84200
05FFEE40
006DFE50
ENDCHAR
STARTCHAR trademark
ENCODING 8482
SWIDTH 840 0
DWIDTH 9 0
BBX 9 5 0 2
BITMAP
BFFE7C19A0
3AD48FCFC0
08D08FFFC0
08D08D49C0
0240240240
ENDCHAR
STARTCHAR minus
ENCODING 8722
SWIDTH 581 0
DWIDTH 6 0
BBX 7 2 0 2
BITMAP
8EEEED10
8DDDDC10
ENDCHAR
STARTCHAR f_f
ENCODING 64256
SWIDTH 803 0
DWIDTH 9 0
BBX 9 9 0 0
BITMAP
0048205810
06FF78FF50
0CF71DF610
8EFCBFFC60
CFFFFFFF90
1DF32EF200
0CF20EF000
0CF20EF000
0AE10CD000
ENDCHAR
STARTCHAR fi
ENCODING 64257
SWIDTH 709 0
DWIDTH 8 0
BBX 8 9 0 0
BITMAP
00472371
06FF78F5
0CF71261
7EFC75B2
CFFFB8F5
1DF308F5
0CF208F5
0CF208F5
0BE107F4
ENDCHAR
STARTCHAR fl
ENCODING 64258
SWIDTH 774 0
DWIDTH 9 0
BBX 9 9 0 0
BITMAP
0047237100
06FF7AF400
0CF71AF400
7EFC7AF400
CFFFBAF400
1DF30AF400
0CF20AF400
0CF209FE30
0BE103DF40
ENDCHAR
STARTCHAR f_f_i
ENCODING 64259
SWIDTH 1059 0
DWIDTH 12 0
BBX 12 9 0 0
BITMAP
004820581360
06FF78FF5AF3
0CF71DF61360
8EFCBFFC66B1
CFFFFFFF9BF3
1DF32EF20BF3
0CF20EF00BF3
0CF20EF00BF3
0AE10CD009E2
ENDCHAR
STARTCHAR .notdef
ENCODING -1
SWIDTH 500 0
DWIDTH 6 0
BBX 1 1 0 0
BITMAP
00
ENDCHAR
STARTCHAR .null
ENCODING -1
SWIDTH 0 0
DWIDTH 0 0
BBX 1 1 0 0
BITMAP
00
ENDCHAR
STARTCHAR nonmarkingreturn
ENCODING -1
SWIDTH 333 0
DWIDTH 4 0
BBX 1 1 0 0
BITMAP
00
ENDCHAR
STARTCHAR f_t
ENCODING -1
SWIDTH 814 0
DWIDTH 9 0
BBX 9 9 0 0
BITMAP
0048200000
06FF78A000
0CF71CF200
8EFCBEFC70
CFFFFFFFB0
1DF32DF310
0CF20CF200
0CF20AFD40
0AE102CF50
ENDCHAR
STARTCHAR t_t
ENCODING -1
SWIDTH 794 0
DWIDTH 9 0
BBX 9 8 0 0
BITMAP
08A00A8000
0CF10FD000
8EFCCFFB50
CFFFFFFF70
1DF32FE200
0CF20FE000
0AFD4DFC20
03CF54DF20
ENDCHAR
STARTCHAR l_l
ENCODING -1
SWIDTH 626 0
DWIDTH 7 0
BBX 7 9 0 0
BITMAP
37137100
8F59F500
8F59F500
8F59F500
8F59F500
8F59F500
8F59F500
7FE8FF80
2CE2AE80
ENDCHAR
STARTCHAR j_j
ENCODING -1
SWIDTH 521 0
DWIDTH 6 0
BBX 8 12 -2 -3
BITMAP
00261261
008F59F4
00261361
005B25B2
008F59F4
008F59F4
008F59F4
008F59F4
009F59F4
15DF5CF3
6FF9AFD0
28504720
ENDCHAR
ENDFONT
